<?xml version="1.0" encoding="UTF-8"?>
<!DOCTYPE svg PUBLIC "-//W3C//DTD SVG 1.1//EN" "http://www.w3.org/Graphics/SVG/1.1/DTD/svg11.dtd">
<svg xmlns="http://www.w3.org/2000/svg" version="1.1" width="512px" height="512px" style="shape-rendering:geometricPrecision; text-rendering:geometricPrecision; image-rendering:optimizeQuality; fill-rule:evenodd; clip-rule:evenodd" xmlns:xlink="http://www.w3.org/1999/xlink">
<g><path style="opacity:0.976" fill="#fff" d="M 147.5,47.5 C 153.509,47.3338 159.509,47.5005 165.5,48C 174.482,52.4731 177.649,59.6397 175,69.5C 173.167,74 170,77.1667 165.5,79C 143.292,78.8869 130.792,89.7203 128,111.5C 127.174,144.542 127.341,177.542 128.5,210.5C 127.002,230.519 117.668,245.519 100.5,255.5C 117.668,265.481 127.002,280.481 128.5,300.5C 127.341,333.458 127.174,366.458 128,399.5C 130.792,421.28 143.292,432.113 165.5,432C 174.482,436.473 177.649,443.64 175,453.5C 171.508,461.248 165.508,464.581 157,463.5C 124.09,460.924 103.757,443.59 96,411.5C 95.9505,372.807 95.2838,334.141 94,295.5C 92.6001,292.098 90.4335,289.264 87.5,287C 75.7848,280.142 63.7848,273.809 51.5,268C 44.8333,259.667 44.8333,251.333 51.5,243C 63.7848,237.191 75.7848,230.858 87.5,224C 90.4335,221.736 92.6001,218.902 94,215.5C 95.2838,176.859 95.9505,138.193 96,99.5C 102.681,71.6527 119.848,54.3193 147.5,47.5 Z"/></g>
<g><path style="opacity:0.976" fill="#fff" d="M 345.5,47.5 C 382.227,46.7286 405.394,64.0619 415,99.5C 415.05,138.193 415.716,176.859 417,215.5C 418.4,218.902 420.567,221.736 423.5,224C 435.247,230.873 447.247,237.206 459.5,243C 466.167,251.333 466.167,259.667 459.5,268C 447.215,273.809 435.215,280.142 423.5,287C 420.567,289.264 418.4,292.098 417,295.5C 415.716,334.141 415.05,372.807 415,411.5C 405.453,447.046 382.287,464.213 345.5,463C 336.518,458.527 333.351,451.36 336,441.5C 337.833,437 341,433.833 345.5,432C 362.061,432.316 373.894,425.149 381,410.5C 381.945,406.886 382.612,403.219 383,399.5C 383.819,366.81 383.652,334.144 382.5,301.5C 383.71,281.057 393.043,265.724 410.5,255.5C 393.043,245.276 383.71,229.943 382.5,209.5C 383.652,176.856 383.819,144.19 383,111.5C 380.208,89.7203 367.708,78.8869 345.5,79C 336.518,74.5269 333.351,67.3603 336,57.5C 338.022,52.98 341.189,49.6467 345.5,47.5 Z"/></g>
</svg>
